:FULLY-SPECIFIED
:FORCE-ALL-JOINTS-BE-3DOF
:DEGREES
170
root 6.50622 16.0857 -25.6616 3.79188 29.2763 1.41407
lfemur -26.1858 31.3681 -16.3366
ltibia 42.4615 0 0
lfoot -8.92042 9.60867 0
ltoes 7.20569 0 0
rfemur -20.0701 -3.31559 -5.20193
rtibia 58.728 0 0
rfoot 7.1103 -26.3126 0
rtoes 42.5733 0 0
lowerback 1.30282 -4.70943 -1.24017
upperback 0.0427154 -6.31096 -2.57063
thorax -0.832089 -3.1521 -1.80765
lowerneck -9.40248 -7.47146 -1.47036
upperneck 1.83424 -10.0452 5.31185
head 2.59554 -4.8393 1.42846
lclavicle -5.51328e-14 9.69002e-15 0
lhumerus -50.1011 -41.6911 115.76
lradius 52.2329 0 0
lwrist 15.3191 0 0
lhand 37.341 28.7132 0
lfingers 7.12502 0 0
lthumb 60.156 42.3229 0
rclavicle -5.51328e-14 9.69002e-15 0
rhumerus -48.5544 -12.3691 -80.9378
rradius 89.1878 0 0
rwrist -3.7219 0 0
rhand -42.7006 -53.7602 0
rfingers 7.12502 0 0
rthumb -15.5693 -443.141 0
171
root 6.4446 16.0828 -25.6388 3.87121 28.4648 1.39451
lfemur -25.7906 30.1961 -14.8404
ltibia 42.6183 0 0
lfoot -10.2228 7.50793 0
ltoes 1.15029 0 0
rfemur -19.1058 -3.43673 -5.28976
rtibia 56.1377 0 0
rfoot 5.09445 -26.7159 0
rtoes 42.829 0 0
lowerback 0.988288 -4.3584 -1.05086
upperback 0.0223535 -5.83416 -2.85287
thorax -0.707894 -2.91515 -2.23318
lowerneck -9.43089 -7.49912 -1.16416
upperneck 1.98754 -10.127 5.33016
head 2.63773 -4.87278 1.37446
lclavicle -2.67299e-14 1.27083e-14 0
lhumerus -50.6372 -42.0011 115.95
lradius 52.1773 0 0
lwrist 15.251 0 0
lhand 37.6498 28.8267 0
lfingers 7.12502 0 0
lthumb 60.4182 42.1464 0
rclavicle -2.67299e-14 1.27083e-14 0
rhumerus -48.8383 -9.58556 -82.4216
rradius 89.5059 0 0
rwrist -3.08938 0 0
rhand -41.1763 -52.2504 0
rfingers 7.12502 0 0
rthumb -14.0992 -441.703 0
172
root 6.37736 16.0826 -25.6139 3.97102 27.5993 1.36371
lfemur -25.2659 28.7048 -13.1255
ltibia 42.5637 0 0
lfoot -11.6073 4.87308 0
ltoes -4.44747 0 0
rfemur -18.1959 -3.67624 -5.34671
rtibia 53.6102 0 0
rfoot 2.72573 -27.0134 0
rtoes 43.0628 0 0
lowerback 0.646815 -4.00601 -0.858787
upperback 0.00123695 -5.3549 -3.15424
thorax -0.566618 -2.67666 -2.68068
lowerneck -9.49223 -7.50627 -0.820073
upperneck 2.13492 -10.1864 5.35404
head 2.6813 -4.89384 1.31621
lclavicle -7.5027e-15 1.30282e-14 0
lhumerus -51.1621 -42.3014 116.066
lradius 52.1195 0 0
lwrist 15.143 0 0
lhand 38.0014 28.8183 0
lfingers 7.12502 0 0
lthumb 60.7162 41.8046 0
rclavicle -7.5027e-15 1.30282e-14 0
rhumerus -49.273 -6.5671 -83.9999
rradius 90.0843 0 0
rwrist -2.57535 0 0
rhand -38.7388 -49.0029 0
rfingers 7.12502 0 0
rthumb -11.7478 -438.555 0
173
root 6.30685 16.0846 -25.5879 4.08856 26.7033 1.32764
lfemur -24.6284 26.9555 -11.2662
ltibia 42.2932 0 0
lfoot -12.9752 1.79231 0
ltoes -9.21171 0 0
rfemur -17.3684 -4.00035 -5.37906
rtibia 51.2232 0 0
rfoot 0.137637 -27.1705 0
rtoes 43.2259 0 0
lowerback 0.290721 -3.66371 -0.674045
upperback -0.0188568 -4.88871 -3.46406
thorax -0.41242 -2.44432 -3.13254
lowerneck -9.58345 -7.49146 -0.451446
upperneck 2.2671 -10.2193 5.38031
head 2.72308 -4.90099 1.25543
lclavicle 8.5341e-15 1.14426e-14 0
lhumerus -51.6566 -42.577 116.104
lradius 52.0681 0 0
lwrist 15.0267 0 0
lhand 38.3659 28.7188 0
lfingers 7.12502 0 0
lthumb 61.0248 41.3567 0
rclavicle 8.5341e-15 1.14426e-14 0
rhumerus -49.8285 -3.42816 -85.6096
rradius 90.8902 0 0
rwrist -2.16337 0 0
rhand -35.4574 -44.4374 0
rfingers 7.12502 0 0
rthumb -8.58178 -434.101 0
174
root 6.2354 16.0886 -25.5617 4.22104 25.8002 1.29229
lfemur -23.895 25.0093 -9.33712
ltibia 41.8025 0 0
lfoot -14.2276 -1.64617 0
ltoes -12.7665 0 0
rfemur -16.6511 -4.37533 -5.39311
rtibia 49.0545 0 0
rfoot -2.53633 -27.1528 0
rtoes 43.2692 0 0
lowerback -0.0676809 -3.34295 -0.50673
upperback -0.0361504 -4.45111 -3.77163
thorax -0.249461 -2.22582 -3.57113
lowerneck -9.70151 -7.45325 -0.0716136
upperneck 2.37481 -10.2216 5.40582
head 2.75989 -4.89273 1.19387
lclavicle 2.73658e-14 8.7442e-15 0
lhumerus -52.1018 -42.8127 116.061
lradius 52.0314 0 0
lwrist 14.9339 0 0
lhand 38.7134 28.559 0
lfingers 7.12502 0 0
lthumb 61.3185 40.8622 0
rclavicle 2.73658e-14 8.7442e-15 0
rhumerus -50.4749 -0.283168 -87.1873
rradius 91.8908 0 0
rwrist -1.83701 0 0
rhand -31.4016 -38.9734 0
rfingers 7.12502 0 0
rthumb -4.66766 -428.746 0
175
root 6.16534 16.0941 -25.5362 4.36571 24.9136 1.26364
lfemur -23.0823 22.9277 -7.41273
ltibia 41.087 0 0
lfoot -15.2656 -5.35418 0
ltoes -14.736 0 0
rfemur -16.0718 -4.76742 -5.39515
rtibia 47.1822 0 0
rfoot -5.16268 -26.9257 0
rtoes 43.144 0 0
lowerback -0.416076 -3.05517 -0.366941
upperback -0.0488661 -4.05761 -4.06626
thorax -0.0818996 -2.02886 -3.97887
lowerneck -9.84337 -7.39022 0.306089
upperneck 2.44875 -10.1892 5.42739
head 2.78856 -4.86755 1.13326
lclavicle 5.49776e-14 5.72592e-15 0
lhumerus -52.4787 -42.9935 115.934
lradius 52.0181 0 0
lwrist 14.8966 0 0
lhand 39.0139 28.3697 0
lfingers 7.12502 0 0
lthumb 61.572 40.3804 0
rclavicle 5.49776e-14 5.72592e-15 0
rhumerus -51.1823 2.75344 -88.6698
rradius 93.0534 0 0
rwrist -1.57982 0 0
rhand -26.6408 -33.0305 0
rfingers 7.12502 0 0
rthumb -0.0720453 -422.893 0
176
root 6.099 16.1007 -25.5124 4.5198 24.0668 1.24765
lfemur -22.207 20.772 -5.56753
ltibia 40.1424 0 0
lfoot -15.9905 -9.24353 0
ltoes -14.7442 0 0
rfemur -15.6585 -5.14288 -5.39146
rtibia 45.6839 0 0
rfoot -7.60791 -26.4549 0
rtoes 42.8013 0 0
lowerback -0.742149 -2.81182 -0.264773
upperback -0.0552267 -3.72373 -4.33727
thorax 0.086104 -1.86111 -4.33813
lowerneck -10.006 -7.30092 0.668326
upperneck 2.47963 -10.118 5.44186
head 2.80591 -4.82395 1.07534
lclavicle 9.73548e-14 3.18055e-15 0
lhumerus -52.7683 -43.1044 115.721
lradius 52.0365 0 0
lwrist 14.9465 0 0
lhand 39.2376 28.1816 0
lfingers 7.12502 0 0
lthumb 61.7602 39.9709 0
rclavicle 9.73548e-14 3.18055e-15 0
rhumerus -51.9208 5.56722 -89.994
rradius 94.345 0 0
rwrist -1.37538 0 0
rhand -21.2443 -27.0285 0
rfingers 7.12502 0 0
rthumb 5.13851 -416.946 0
177
root 6.02797 16.0947 -25.4892 4.73786 23.0285 1.3699
lfemur -20.8303 17.9664 -3.88692
ltibia 38.1287 0 0
lfoot -14.1802 -13.1621 0
ltoes -4.50241 0 0
rfemur -15.6258 -5.29834 -5.5489
rtibia 44.851 0 0
rfoot -9.5498 -25.0682 0
rtoes 42.0184 0 0
lowerback -1.06457 -2.65745 -0.333119
upperback -0.0536657 -3.504 -4.58683
thorax 0.274302 -1.74902 -4.57503
lowerneck -10.2639 -7.07131 0.980913
upperneck 2.46034 -9.85463 5.41168
head 2.82181 -4.68662 1.02083
lclavicle 5.62848e-14 2.80964e-15 0
lhumerus -52.9053 -43.0164 115.336
lradius 52.2084 0 0
lwrist 15.7376 0 0
lhand 38.9964 28.5502 0
lfingers 7.12502 0 0
lthumb 61.5571 40.577 0
rclavicle 5.62848e-14 2.80964e-15 0
rhumerus -52.8742 8.54127 -90.8974
rradius 96.3031 0 0
rwrist -1.36074 0 0
rhand -14.1605 -23.1748 0
rfingers 7.12502 0 0
rthumb 11.9537 -412.523 0
